<svg height="512pt" viewBox="0 0 512 512" width="512pt" xmlns="http://www.w3.org/2000/svg"><path d="m456.835938 0h-401.667969c-30.421875 0-55.167969 24.746094-55.167969 55.164062v401.667969c0 30.421875 24.746094 55.167969 55.167969 55.167969h401.667969c30.417968 0 55.164062-24.746094 55.164062-55.167969v-401.667969c0-30.417968-24.746094-55.164062-55.164062-55.164062zm0 0" fill="#ff3f5c"/><path d="m456.835938 0h-200.835938v512h200.835938c30.417968 0 55.164062-24.746094 55.164062-55.167969v-401.667969c0-30.417968-24.746094-55.164062-55.164062-55.164062zm0 0" fill="#f30051"/><path d="m256 447.734375v-383.46875c-105.722656 0-191.734375 86.011719-191.734375 191.734375s86.011719 191.734375 191.734375 191.734375zm0 0" fill="#ff8398"/><path d="m256 64.265625v383.46875c105.722656 0 191.734375-86.011719 191.734375-191.734375 0-105.71875-86.011719-191.734375-191.734375-191.734375zm0 0" fill="#ff3f5c"/><path d="m175.828125 219.609375c9.527344 0 11.746094 4.449219 12.21875 11.632813.128906 3.332031 1.878906 10.859374 14.9375 10.859374 6.414063 0 14.941406-1.5 14.941406-14.460937 0-21.144531-17.242187-35.351563-42.902343-35.351563-26.34375 0-41.453126 15.054688-41.453126 41.296876v44.828124c0 26.242188 15.34375 41.292969 42.097657 41.292969 26.855469 0 42.261719-15.050781 42.261719-41.292969v-19.121093c0-6.410157-4.769532-11.25-11.089844-11.25h-27.316406c-6.226563 0-10.925782 5.457031-10.925782 12.695312s4.699219 12.695313 10.925782 12.695313h8.519531v4.980468c0 12.527344-7.0625 13.976563-12.375 13.976563-5.683594 0-12.207031-1.589844-12.207031-13.976563v-44.832031c-.003907-12.386719 6.605468-13.972656 12.367187-13.972656zm0 0" fill="#e7f0ef"/><path d="m256.480469 192.292969c-8.9375 0-14.945313 4.390625-14.945313 10.925781v104.441406c0 6.527344 6.148438 11.085938 14.945313 11.085938 8.660156 0 14.941406-4.664063 14.941406-11.085938v-104.441406c.003906-6.535156-6.003906-10.925781-14.941406-10.925781zm0 0" fill="#e7f0ef"/><g fill="#c5e1e6"><path d="m367.503906 192.292969h-56.074218c-7.914063 0-13.65625 4.660156-13.65625 11.085937v104.277344c0 6.527344 6.144531 11.085938 14.941406 11.085938 8.660156 0 14.941406-4.660157 14.941406-11.085938v-39.523438h20.082031c7.175781 0 10.929688-6.304687 10.929688-12.535156 0-7.449218-4.597657-12.855468-10.929688-12.855468h-20.082031v-23.132813h39.847656c6.433594 0 10.925782-5.683594 10.925782-13.820313 0-7.945312-4.492188-13.496093-10.925782-13.496093zm0 0"/><path d="m256.480469 192.292969c-.164063 0-.320313.011719-.480469.015625v126.421875c.160156 0 .316406.015625.480469.015625 8.660156 0 14.941406-4.664063 14.941406-11.085938v-104.441406c.003906-6.535156-6.003906-10.925781-14.941406-10.925781zm0 0"/></g></svg>